<svg xmlns="http://www.w3.org/2000/svg" viewBox="0 0 32 32">
  <rect width="32" height="32" fill="#070f20" rx="6"/>
  <circle cx="16" cy="13" r="7" fill="none" stroke="#1a2d5a" stroke-width="6"/>
  <circle cx="16" cy="13" r="6.5" fill="#070f20"/>
  <radialGradient id="mg" cx="45%" cy="40%" r="55%">
    <stop offset="0%" stop-color="#fff8d0"/>
    <stop offset="60%" stop-color="#f5c842"/>
    <stop offset="100%" stop-color="#c8860a"/>
  </radialGradient>
  <circle cx="16" cy="13" r="6" fill="url(#mg)"/>
  <ellipse cx="16" cy="26" rx="10" ry="3.5" fill="#0d1829"/>
  <rect x="12" y="20" width="8" height="6" fill="#0d1829"/>
  <path d="M8 20 Q16 17 24 20" fill="#1a2d5a" opacity="0.6"/>
  <path d="M10 22 L10 26 M14 21 L14 26 M18 21 L18 26 M22 22 L22 26" stroke="#c8a020" stroke-width="0.5" opacity="0.4"/>
  <rect x="14" y="22" width="4" height="4" fill="#070f20" rx="0.5"/>
  <circle cx="22" cy="10" r="1" fill="rgba(255,255,255,0.7)"/>
  <circle cx="9" cy="7" r="0.7" fill="rgba(255,255,255,0.5)"/>
  <circle cx="26" cy="15" r="0.5" fill="rgba(255,255,255,0.4)"/>
  <circle cx="5" cy="13" r="0.6" fill="rgba(255,255,255,0.35)"/>
</svg>